<svg xmlns="http://www.w3.org/2000/svg" xmlns:xlink="http://www.w3.org/1999/xlink" version="1.1" x="0px" y="0px" viewBox="0 0 24 24" enable-background="new 0 0 24 24" xml:space="preserve"><g><path d="M21.345,15.758c-0.123,0-0.248-0.035-0.359-0.109L12,9.674l-8.986,5.975c-0.299,0.201-0.702,0.117-0.901-0.181   c-0.199-0.3-0.117-0.703,0.182-0.901l9.346-6.215c0.218-0.145,0.502-0.145,0.72,0l9.346,6.215c0.299,0.198,0.38,0.602,0.181,0.901   C21.762,15.655,21.556,15.758,21.345,15.758z"></path><path d="M23.188,23.839H0.813c-0.359,0-0.65-0.291-0.65-0.65V0.813c0-0.359,0.291-0.65,0.65-0.65h22.375   c0.359,0,0.65,0.291,0.65,0.65v22.375C23.839,23.548,23.548,23.839,23.188,23.839z M1.463,22.538h21.075V1.463H1.463V22.538z"></path></g></svg>