<svg xmlns="http://www.w3.org/2000/svg" xmlns:xlink="http://www.w3.org/1999/xlink" version="1.1" x="0px" y="0px" viewBox="0 0 100 100" enable-background="new 0 0 100 100" xml:space="preserve"><path d="M41.993,8.034V7.583c0-0.488-0.526-1.014-0.526-1.014c-1.652-0.413-6.422-0.15-6.422-0.15  c-0.901,0.075-0.977,1.239-0.977,1.239v0.376H41.993z"></path><path d="M38.894,64.086c-5.44,0-10.452-0.553-12.562-0.818v21.734c0.084,0.01,0.174,0.021,0.271,0.033  c0.705,0.09,1.72,0.207,2.955,0.326c2.471,0.236,5.824,0.473,9.337,0.473c2.156,0,4.372-0.09,6.478-0.32  c1.796-0.195,3.511-0.496,5.036-0.926V62.896c-1.52,0.398-3.164,0.674-4.864,0.861C43.362,63.996,41.093,64.086,38.894,64.086z"></path><path d="M45.542,87.082c-2.181,0.238-4.45,0.328-6.649,0.328c-5.454,0-10.478-0.555-12.579-0.82  c0.097,4.771,3.021,4.939,3.021,4.939c9.916,2.027,18.592-0.225,18.592-0.225c2.331-0.539,2.521-3.783,2.502-5.09  C48.904,86.615,47.251,86.895,45.542,87.082z"></path><path d="M46.125,40.373c-3.042-6.423-3.944-16.639-3.944-16.639l-0.011-0.602l-0.024-1.352l-0.171-9.466l0.233-1.352  c0.058-0.138,0.087-0.263,0.087-0.263V9.385h-8.582c-0.026,0.265-0.02,0.488-0.02,0.488c-0.017,0.407,0.043,0.791,0.113,1.09  l0.188,1.352v9.466v1.352v1.804c0,7.211-4.207,16.226-4.207,16.226c-2.554,6.16-3.455,14.422-3.455,14.422v6.092  c0.084,0.012,0.174,0.023,0.271,0.035c0.705,0.088,1.72,0.207,2.955,0.324c2.471,0.236,5.824,0.473,9.337,0.473  c2.156,0,4.372-0.088,6.478-0.318c1.796-0.195,3.511-0.498,5.036-0.926v-5.115C50.407,49.613,46.125,40.373,46.125,40.373z"></path><path d="M62.289,73.479l-0.131,13.27c0,0-0.195,1.961-1.635,2.156c0,0-3.855,0.719-4.574,1.047c0,0-0.852,0.521-0.197,0.914  c0,0,1.83,1.242,7.256,1.307c0,0,4.771,0.066,7.387-1.109c0,0,0.783-0.721-0.85-1.111c0,0-4.053-0.916-4.969-1.504  c0,0-0.588-0.719-0.588-1.504V73.349c0,0,8.629-5.424,8.105-12.941c0,0-0.785-7.256-1.242-9.281c0,0-6.406-0.98-14.773-0.262  c0,0-1.438,5.883-1.633,9.412C54.445,60.276,53.334,66.747,62.289,73.479z"></path></svg>