<svg xmlns="http://www.w3.org/2000/svg" xmlns:xlink="http://www.w3.org/1999/xlink" version="1.1" x="0px" y="0px" viewBox="0 0 64 64" enable-background="new 0 0 64 64" xml:space="preserve"><g><g><path d="M19.871,48.141l-1.262-8.691l-0.003-0.205l0.952-1.07l0.042-0.254c0.108-0.649-0.393-1.24-1.051-1.239l-1.865,0.001    c-0.658,0-1.158,0.592-1.049,1.24l0.042,0.252l1.067,1.1l-1.396,8.778l-2.533-11.728l-0.121-0.455l-0.332,0.197    c-1.241,0.737-2.596,1.263-4.011,1.552c-2.771,0.567-5.339,1.239-6.251,4.327C1.478,44.057,1.425,52.54,1.29,55.962    c-0.029,0.743,0.49,1.395,1.222,1.533c2.124,0.401,6.162,1.154,11.402,1.414l0.001,0.001c0.061,0.003,0.124,0.005,0.185,0.008    c0.287,0.014,0.575,0.026,0.863,0.036c0.106,0.004,0.211,0.007,0.317,0.011c0.237,0.008,0.474,0.013,0.712,0.018l0,0    c-0.05-0.001-0.1-0.003-0.149-0.004l0,0.001c0.05,0.002,0.099,0.002,0.149,0.003l0,0.001c0.034,0.001,0.067,0.001,0.101,0.002    c0.046,0.001,0.091,0.003,0.137,0.004c0.035,0.001,0.07,0.002,0.105,0.003l0-0.001c0.05,0.001,0.101,0.001,0.151,0.001    C16.8,58.996,17.113,59,17.427,59c0.24,0,0.481-0.003,0.722-0.005C17.908,58.998,17.667,59,17.427,59    c6.508,0,12.58-1.034,15.3-1.518c0.739-0.132,1.268-0.786,1.238-1.536c-0.134-3.427-0.189-11.892-0.811-13.999    c-0.917-3.104-3.522-3.767-6.299-4.336c-1.448-0.297-2.833-0.839-4.098-1.604l-0.306-0.185L19.871,48.141z M19.401,58.969    c-0.051,0.001-0.102,0.002-0.152,0.003l0-0.001c0.051-0.002,0.102-0.003,0.153-0.004C19.401,58.968,19.401,58.969,19.401,58.969z     M16.335,58.989L16.335,58.989c0.005,0,0.01,0,0.015,0C16.345,58.989,16.34,58.989,16.335,58.989z"></path><path d="M25.003,20.845c0.004-0.031-0.001-0.059-0.007-0.087c-0.108-0.52-0.236-1.034-0.467-1.517    c-0.048-0.1-0.091-0.203-0.129-0.308c-0.133-0.359-0.262-0.718-0.393-1.077c-0.01-0.028-0.021-0.056-0.031-0.084    c0.011-0.006,0.023-0.012,0.034-0.019c0.191,0.302,0.383,0.604,0.574,0.907c-0.029-0.102-0.065-0.202-0.106-0.301    c-0.173-0.421-0.398-0.809-0.735-1.124c-0.07-0.065-0.135-0.14-0.189-0.219c-0.351-0.522-0.774-0.962-1.359-1.221    c-0.257-0.114-0.517-0.222-0.776-0.333c-0.065-0.028-0.13-0.056-0.194-0.084c0.879,0.07,1.696,0.343,2.485,0.717    c-0.026-0.027-0.055-0.047-0.085-0.067c-0.806-0.544-1.706-0.817-2.663-0.929c-0.357-0.042-0.72-0.039-1.063-0.177    c-0.12-0.048-0.249-0.074-0.375-0.107c-0.18-0.047-0.36-0.09-0.541-0.135c0.001-0.01,0.002-0.021,0.002-0.031    c0.552,0,1.103,0,1.655,0c-0.013-0.032-0.028-0.042-0.044-0.044c-0.72-0.104-1.442-0.181-2.17-0.116    c-0.249,0.022-0.495,0.034-0.743,0c-0.11-0.015-0.221-0.019-0.331-0.029c-0.001-0.011-0.001-0.021-0.002-0.032    c0.54-0.101,1.08-0.201,1.651-0.308c-0.573,0.014-1.113,0.051-1.647,0.146c-0.298,0.053-0.59,0.148-0.889,0.187    c-0.428,0.056-0.861,0.078-1.294,0.114c0.856-0.407,1.772-0.585,2.705-0.688c-0.175,0.005-0.351-0.003-0.525,0.007    c-0.647,0.034-1.288,0.11-1.914,0.281c-0.519,0.142-1.012,0.34-1.436,0.684c-0.08,0.065-0.178,0.11-0.267,0.164    c-0.009-0.014-0.018-0.027-0.027-0.041c0.195-0.141,0.383-0.294,0.586-0.421c0.207-0.13,0.426-0.244,0.648-0.348    c0.214-0.101,0.437-0.181,0.657-0.27c-0.435,0.111-0.854,0.263-1.256,0.461c-0.799,0.392-1.4,1.046-2.09,1.582    c-0.003,0.002-0.006,0.005-0.008,0.008c-0.044,0.072-0.092,0.142-0.132,0.217c-0.058,0.111-0.103,0.231-0.169,0.337    c-0.03,0.048-0.095,0.081-0.151,0.105c-0.113,0.047-0.235,0.073-0.346,0.123c-0.595,0.267-0.946,0.733-1.095,1.361    c0.143-0.285,0.323-0.541,0.587-0.773c-0.071,0.246-0.131,0.464-0.2,0.679c-0.028,0.087-0.067,0.174-0.117,0.251    c-0.14,0.215-0.248,0.443-0.33,0.714c0.113-0.192,0.21-0.358,0.308-0.524c0.008,0.004,0.016,0.008,0.024,0.012    c-0.01,0.045-0.02,0.091-0.03,0.136c-0.242,1.053-0.381,2.118-0.333,3.201c0.021,0.468,0.081,0.924,0.226,1.364    c-0.02,0.317-0.031,0.641-0.031,0.974l0,0.013c0.043,2.161,1.027,4.895,2.569,7.134c1.213,1.761,2.788,2.75,4.435,2.784    c0.03,0.001,0.059,0.001,0.089,0.001c1.628,0,3.222-0.929,4.497-2.625c1.526-2.03,2.408-4.395,2.697-7.232    c0.029-0.284,0.046-0.564,0.053-0.841c0.144-0.733,0.112-1.472,0.035-2.209c-0.046-0.441-0.12-0.878-0.184-1.341    c0.07,0.182,0.137,0.343,0.196,0.507C24.9,20.517,24.95,20.682,25.003,20.845z M23.497,24.111    c-0.266,2.603-1.068,4.764-2.453,6.607c-1.049,1.396-2.312,2.148-3.559,2.125c-1.252-0.026-2.438-0.801-3.43-2.242    c-1.24-1.801-1.91-3.623-2.19-5.063c0.038-0.413,0.054-0.828,0.063-1.243c0.001-0.05-0.003-0.103,0.011-0.15    c0.043-0.148,0.1-0.292,0.139-0.441c0.125-0.478,0.24-0.959,0.37-1.436c0.035-0.13,0.099-0.256,0.168-0.374    c0.133-0.228,0.287-0.227,0.439-0.009c0.025,0.036,0.049,0.072,0.081,0.118c0.047-0.447,0.111-0.601,0.329-0.83    c0.215-0.226,0.486-0.352,0.781-0.387c1.714,0.762,4.316,1.359,7.073-0.053c0.183,0.004,0.365,0.018,0.546,0.073    c0.303,0.092,0.528,0.27,0.659,0.549c0.084,0.179,0.123,0.38,0.18,0.565c0.038-0.045,0.085-0.109,0.14-0.164    c0.129-0.128,0.233-0.109,0.308,0.058c0.031,0.069,0.059,0.142,0.07,0.216c0.054,0.357,0.097,0.715,0.152,1.072    c0.042,0.272,0.092,0.544,0.141,0.815C23.509,23.981,23.504,24.046,23.497,24.111z"></path></g><g><path d="M58.798,5H33.736c-2.158,0-3.913,1.755-3.913,3.913v11.057c0,2.158,1.755,3.913,3.913,3.913h0.453v3.666    c0,1.573,0.934,2.986,2.379,3.598c0.488,0.209,1.004,0.315,1.534,0.315c1.014,0,1.977-0.388,2.712-1.094l6.741-6.485h11.242    c2.158,0,3.913-1.755,3.913-3.913V8.913C62.711,6.755,60.956,5,58.798,5z M33.736,21.594c-0.896,0-1.624-0.729-1.624-1.624V8.913    c0-0.896,0.729-1.624,1.624-1.624h25.062c0.896,0,1.624,0.729,1.624,1.624v11.057c0,0.896-0.729,1.624-1.624,1.624H46.635    l-7.405,7.125c-0.306,0.293-0.706,0.454-1.127,0.454c-0.216,0-0.436-0.045-0.635-0.13c-0.601-0.255-0.989-0.841-0.989-1.494    v-5.955H33.736z"></path><g><circle cx="38.285" cy="14.392" r="2.987"></circle><circle cx="46.267" cy="14.392" r="2.987"></circle><circle cx="54.249" cy="14.392" r="2.987"></circle></g></g></g></svg>