<svg xmlns="http://www.w3.org/2000/svg" xmlns:xlink="http://www.w3.org/1999/xlink" version="1.1" x="0px" y="0px" viewBox="0 0 100 100" enable-background="new 0 0 100 100" xml:space="preserve"><g><path d="M32,80.568c-1.344,0-3-1.089-3-2.433V61.912c0-1.344,1.656-2.433,3-2.433c1.344,0,3,1.089,3,2.433v16.222   C35,79.478,33.344,80.568,32,80.568z"></path><path d="M44.546,82H20.213c-1.344,0-2.433-0.156-2.433-1.5s1.089-1.5,2.433-1.5h24.333c1.344,0,2.433,0.156,2.433,1.5   S45.89,82,44.546,82z"></path><path d="M82.219,33.465c0.001,1.175-0.72,2.121-1.602,2.12l0,0c-0.879,0-1.597-0.952-1.591-2.122l0.003-1.083l0.017-12.751   c0.002-1.175-0.714-2.126-1.598-2.127l0,0c-0.882-0.005-1.596,0.946-1.604,2.12l-0.037,1.024L75.786,33.4   c0.001,1.175-0.717,2.126-1.599,2.125l0,0c-0.885,0-1.598-0.957-1.596-2.127l-0.06-0.573l0.021-12.752   c-0.001-1.179-0.66-2.534-1.545-2.534l0,0c-0.882-0.005-1.65,1.354-1.653,2.528l-0.018,12.751l0.033,1.058   c0.001,1.18-0.753,1.873-1.633,1.873l0,0c-0.886,0-1.563-0.7-1.563-1.874l0.021-13.81c0.001-1.179-0.691-3.84-1.576-3.845l0,0   c-0.884,0-1.615,2.659-1.622,3.839l-0.018,12.752l-0.001,1.475c-0.009,5.626,1.622,9.466,6.189,9.473l0.258,0.374l-0.052,35.225   c-0.002,2.519,1.95,4.559,4.361,4.56l0,0c2.412,0.006,4.368-2.027,4.37-4.546l0.052-35.225l0.171-0.374   c4.565,0.007,7.005-3.827,7.015-9.457l0-0.651l0.003-1.276l0.018-12.752c0.003-1.17-0.887-3.384-1.769-3.389l0,0   c-0.886,0-1.426,2.213-1.429,3.383l-0.02,12.756L82.219,33.465z"></path><path d="M15,19v24.698C15,53.772,22.334,62,32.408,62h-0.077C42.405,62,50,53.772,50,43.698V19H15z M47,37H18V23h29V37z"></path></g></svg>