<svg xmlns="http://www.w3.org/2000/svg" data-name="Layer 1" viewBox="0 0 512 512" x="0px" y="0px"><title>email</title><path d="M509.27,98.11L263.15,266.26l-0.07,0,0,0a12.59,12.59,0,0,1-1.1.66l-0.29.15a12.45,12.45,0,0,1-1.23.55h0a12.38,12.38,0,0,1-1.34.42l-0.11,0a12.43,12.43,0,0,1-1.37.25c-0.06,0-.12.26-0.18,0.27A13.51,13.51,0,0,1,256,269h0a13.56,13.56,0,0,1-1.36-.33c-0.06,0-.12-0.14-0.17-0.14a12.72,12.72,0,0,1-1.35-.31s-0.08-.05-0.13-0.06a12.5,12.5,0,0,1-1.34-.43h0a12.51,12.51,0,0,1-1.21-.54l-0.29-.15c-0.35-.19-0.71-0.39-1-0.62l-0.06,0-0.08-.05L0,100.48v318A14.54,14.54,0,0,0,14.45,433h483.1A14.54,14.54,0,0,0,512,418.45V95.57A12.49,12.49,0,0,1,509.27,98.11Z"></path><path d="M255.91,240.87L492.77,79H14.45c-0.48,0-.95.08-1.41,0.12,0.2,0.12.4,0.23,0.6,0.36Z"></path></svg>