<svg xmlns="http://www.w3.org/2000/svg" xmlns:xlink="http://www.w3.org/1999/xlink" version="1.1" x="0px" y="0px" viewBox="0 0 100 100" style="enable-background:new 0 0 100 100;" xml:space="preserve"><g><g><path d="M92.9,46.3c-0.8-12.1-6.8-23.4-16.3-30.9C67.1,7.9,54.7,4.8,42.7,6.8C21.3,10.5,5.6,30.3,7.1,52.1    c0.7,10.5,5.1,20.2,12.5,27.6c-1.9,2.8-3.6,4.6-8.1,8.2c-0.9,0.7-1.3,1.8-1,2.9c0.2,1.1,1,2,2,2.3c1.5,0.5,3.7,0.7,6.2,0.7    c5.3,0,12-1.2,17.2-3.9c6.9,2.4,14.3,3,21.6,1.7C78.9,87.8,94.4,67.9,92.9,46.3z M30,57c-3.9,0-7-3.1-7-7c0-3.9,3.1-7,7-7    s7,3.1,7,7C37,53.9,33.9,57,30,57z M50,57c-3.9,0-7-3.1-7-7c0-3.9,3.1-7,7-7s7,3.1,7,7C57,53.9,53.9,57,50,57z M70,57    c-3.9,0-7-3.1-7-7c0-3.9,3.1-7,7-7s7,3.1,7,7C77,53.9,73.9,57,70,57z"></path></g></g></svg>