<svg xmlns="http://www.w3.org/2000/svg" xmlns:xlink="http://www.w3.org/1999/xlink" version="1.1" x="0px" y="0px" viewBox="0 0 100 100" enable-background="new 0 0 100 100" xml:space="preserve"><path fill="#000000" d="M80.448,81.238c0,0-11.213-2.024-15.725-7.118c-5.708-6.445-0.98-12.243,0.212-14.2  c0.902-0.82,1.754-1.72,2.541-2.695c0.313-0.39,0.619-0.79,0.912-1.202c3.343-4.68,2.909-20.5,2.572-27.172  c-0.471-9.337-7.044-16.974-19.18-16.974c-0.197,0-0.394,0.012-0.592,0.019c-0.197-0.007-0.393-0.019-0.592-0.019  c-12.134,0-18.708,7.636-19.179,16.974c-0.337,6.672-0.771,22.493,2.571,27.172c0.294,0.412,0.599,0.813,0.913,1.201  c0.788,0.977,1.639,1.876,2.541,2.697c1.193,1.956,5.92,7.754,0.212,14.199c-4.511,5.094-15.726,7.118-15.726,7.118  s-13.18,1.444-14.555,6.885v6.961h87.749v-6.961C93.313,82.93,80.448,81.238,80.448,81.238z"></path></svg>