<svg xmlns="http://www.w3.org/2000/svg" xmlns:xlink="http://www.w3.org/1999/xlink" version="1.1" x="0px" y="0px" viewBox="0 0 100 100" enable-background="new 0 0 100 100" xml:space="preserve"><g><g><path d="M85.694,79.351c-0.071-0.202-0.124-0.41-0.209-0.603c-0.328-0.708-0.806-1.306-1.448-1.749    c-3.128-2.158-6.258-4.319-9.401-6.46c-1.274-0.867-2.574-1.698-3.882-2.516c-0.819-0.513-1.719-0.844-2.684-0.954    c-0.463-0.052-0.887,0-1.308,0.263c-1.604,1.008-3.228,1.978-4.847,2.965c-0.095,0.055-0.183,0.12-0.316,0.205    c7.546,5.276,15.068,10.529,22.615,15.803c0.04-0.117,0.069-0.192,0.089-0.266c0.353-1.404,0.712-2.809,1.058-4.213    c0.138-0.55,0.256-1.103,0.384-1.655C85.728,79.898,85.713,79.626,85.694,79.351z"></path><path d="M36.623,21.814c0.179,2.185,0.401,4.367,0.628,6.55c0.073,0.726,0.201,1.45,0.32,2.167c0.066,0.376,0.262,0.54,0.638,0.54    c0.26,0,0.526-0.029,0.778-0.09c0.615-0.146,1.179-0.423,1.722-0.738c0.665-0.383,1.32-0.79,1.816-1.386    c0.517-0.623,0.992-1.283,1.491-1.922c0.121-0.154,0.154-0.314,0.137-0.506c-0.436-5.789-0.879-11.578-1.3-17.368    c-0.041-0.56-0.237-1.015-0.601-1.418c-0.177-0.194-0.366-0.379-0.572-0.538c-1.172-0.925-2.502-1.538-3.949-1.897    C37.347,5.111,36.949,5.069,36.56,5c-0.343,0.022-0.684,0.042-1.028,0.063c-0.074,0.045-0.148,0.089-0.228,0.137    c0.007,0.084,0.008,0.165,0.016,0.244C35.753,10.9,36.173,16.356,36.623,21.814z"></path><path d="M57.705,73.682c-1.06,0.398-2.154,0.614-3.287,0.56c-1.555-0.07-2.892-0.681-4.015-1.76    c-0.615-0.587-1.12-1.264-1.616-1.951c-1.816-2.508-3.481-5.114-5.12-7.738c-3.995-6.39-7.845-12.867-11.634-19.38    c-0.121-0.207-0.22-0.428-0.31-0.65c-0.438-1.073-0.703-2.194-0.789-3.352c-0.101-1.4,0.092-2.756,0.707-4.033    c0.606-1.258,1.53-2.238,2.674-3.017c0.34-0.231,0.694-0.435,1.056-0.66c-0.01-0.124-0.014-0.249-0.026-0.371    c-0.087-0.968-0.171-1.937-0.259-2.903c-0.257-2.81-0.516-5.621-0.77-8.432c-0.167-1.821-0.323-3.641-0.493-5.462    c-0.265-2.949-0.532-5.896-0.802-8.842c-0.012-0.122-0.03-0.243-0.045-0.36c-0.063-0.013-0.096-0.023-0.13-0.021    c-0.089,0.004-0.181,0.012-0.273,0.024c-1.516,0.206-3.014,0.507-4.482,0.947c-2.697,0.81-5.23,1.959-7.477,3.677    c-3.927,3.003-5.95,7.01-6.248,11.918c-0.028,0.484-0.073,0.973-0.111,1.456c0.059,0.98,0.121,1.962,0.18,2.945    c0.027,0.131,0.064,0.261,0.079,0.394c0.155,1.354,0.289,2.704,0.458,4.055c0.212,1.674,0.407,3.357,0.687,5.022    c0.037,0.23,0.076,0.457,0.116,0.687c0.337,1.989,0.703,3.973,1.113,5.946c0.488,2.389,1.098,4.746,1.786,7.088    c0.06,0.203,0.117,0.404,0.177,0.608c0.051,0.172,0.107,0.34,0.158,0.509c0.996,3.235,2.163,6.406,3.616,9.47    c1.064,2.242,2.247,4.42,3.723,6.42c2.729,3.694,5.561,7.308,8.595,10.76c2.155,2.449,4.4,4.806,6.797,7.005    c0.836,0.762,1.687,1.511,2.56,2.235c2.469,2.045,5.068,3.901,7.906,5.403c2.641,1.396,5.401,2.449,8.363,2.922    c0.969,0.153,1.939,0.25,2.928,0.164c1.094-0.102,2.192-0.146,3.286-0.207c0.298-0.02,0.584-0.063,0.871-0.152    c2.888-0.901,5.699-1.999,8.418-3.335c1.949-0.956,3.828-2.03,5.595-3.297c0.1-0.068,0.191-0.145,0.308-0.23    c-7.359-5.095-14.676-10.156-21.998-15.219C59.248,73.008,58.497,73.382,57.705,73.682z"></path></g></g></svg>