<svg xmlns="http://www.w3.org/2000/svg" xmlns:xlink="http://www.w3.org/1999/xlink" version="1.1" x="0px" y="0px" viewBox="0 0 100 100" enable-background="new 0 0 100 100" xml:space="preserve"><path d="M95.587,27.477H79.188c-4.128,0-5.928-1.849-7.832-3.806c-1.94-1.995-3.947-4.057-8.168-4.057H20.688  c-0.003,0-0.006,0.002-0.01,0.002c-2.28,0.005-4.135,1.862-4.135,4.144v13.553h-2.42c-0.004,0-0.006,0.002-0.01,0.002  c-2.281,0.005-4.135,1.862-4.135,4.144v13.553h-2.42c-0.004,0-0.006,0.002-0.01,0.002c-2.281,0.006-4.135,1.861-4.135,4.143v17.08  c0,2.283,1.854,4.141,4.135,4.146c0.004,0,0.006,0.002,0.01,0.002h42.5c4.222,0,6.228-2.063,8.169-4.057  c1.904-1.957,3.703-3.807,7.831-3.807h16.398c0.552,0,1-0.447,1-1v-7.648c0-0.551-0.448-1-1-1H66.059  c-2.155,0-3.669-0.51-4.901-1.27c1.467-0.779,2.569-1.879,3.635-2.975c1.904-1.957,3.703-3.805,7.831-3.805h16.398  c0.552,0,1-0.449,1-1v-7.649c0-0.552-0.448-1-1-1H72.623c-2.155,0-3.669-0.51-4.9-1.271c1.466-0.779,2.568-1.879,3.634-2.974  c1.904-1.957,3.704-3.806,7.832-3.806h16.398c0.552,0,1-0.448,1-1v-7.648C96.587,27.924,96.139,27.477,95.587,27.477z   M67.059,64.873h14.398v5.648H67.059V64.873z M73.623,47.175h14.398v5.649H73.623V47.175z M34.113,21.614h4.857v3.316  c0,0.552,0.448,1,1,1c0.553,0,1-0.448,1-1v-3.316h2.988v4.982c0,0.552,0.448,1,1,1c0.553,0,1-0.448,1-1v-4.982h2.986v4.982  c0,0.552,0.448,1,1,1c0.553,0,1-0.448,1-1v-4.982h4.858v9.845h-21.69V21.614z M65.059,70.559c-4.286,0.293-6.394,2.451-8.265,4.375  c-1.803,1.852-3.359,3.451-6.735,3.451H7.563c-0.002,0-0.003-0.002-0.005-0.002c-1.183,0-2.145-0.963-2.145-2.146v-17.08  c0-1.182,0.962-2.145,2.145-2.145c0.002,0,0.003,0,0.005,0h11.42v10.844c0,0.553,0.448,1,1,1h23.691c0.552,0,1-0.447,1-1V57.012  h5.384c3.376,0,4.933,1.6,6.735,3.451c1.871,1.924,3.979,4.082,8.265,4.375V70.559z M26.842,61.328c0.553,0,1-0.447,1-1v-3.316  h2.988v4.982c0,0.553,0.447,1,1,1s1-0.447,1-1v-4.982h2.986v4.982c0,0.553,0.447,1,1,1s1-0.447,1-1v-4.982h4.858v9.844H20.983  v-9.844h4.858v3.316C25.842,60.881,26.289,61.328,26.842,61.328z M71.623,52.859c-4.286,0.293-6.394,2.451-8.265,4.375  c-1.219,1.252-2.339,2.377-3.975,2.979c-0.394-0.369-0.775-0.752-1.156-1.145c-1.941-1.994-3.947-4.057-8.169-4.057h-38.08V41.458  c0-1.183,0.962-2.145,2.145-2.145c0.002,0,0.003-0.001,0.005-0.001h11.42v10.845c0,0.551,0.448,1,1,1h23.691c0.552,0,1-0.449,1-1  V39.313h5.384c3.376,0,4.933,1.6,6.735,3.451c1.871,1.923,3.979,4.083,8.265,4.375V52.859z M33.406,43.629c0.553,0,1-0.448,1-1  v-3.316h2.988v4.982c0,0.552,0.447,1,1,1s1-0.448,1-1v-4.982h2.986v4.982c0,0.552,0.447,1,1,1s1-0.448,1-1v-4.982h4.858v9.845  H27.548v-9.845h4.858v3.316C32.406,43.182,32.854,43.629,33.406,43.629z M78.188,35.161c-4.287,0.292-6.394,2.452-8.266,4.375  c-1.219,1.252-2.339,2.376-3.975,2.978c-0.393-0.37-0.774-0.752-1.156-1.145c-1.941-1.995-3.947-4.057-8.169-4.057h-38.08V23.76  c0-1.183,0.963-2.145,2.145-2.145c0.002,0,0.004-0.001,0.006-0.001h11.42v10.845c0,0.552,0.447,1,1,1h23.69c0.553,0,1-0.448,1-1  V21.614h5.385c3.376,0,4.933,1.6,6.734,3.451c1.872,1.923,3.979,4.083,8.266,4.375V35.161z M94.587,35.125H80.188v-5.648h14.398  V35.125z"></path></svg>