<svg xmlns="http://www.w3.org/2000/svg" xmlns:xlink="http://www.w3.org/1999/xlink" version="1.1" x="0px" y="0px" viewBox="0 0 100 100" enable-background="new 0 0 100 100" xml:space="preserve"><path d="M50.82,69.76v6.95H55c0.83,0,1.5,0.67,1.5,1.5c0,0.82-0.67,1.5-1.5,1.5H43.63c-0.82,0-1.5-0.68-1.5-1.5  c0-0.83,0.68-1.5,1.5-1.5h4.19v-6.95c-0.23-0.02-0.45-0.06-0.67-0.109c-0.04,0.069-0.07,0.13-0.12,0.199  c-4.27,6.17-11.3,9.86-18.79,9.86c-12.6,0-22.84-10.25-22.84-22.84c0-2.01,1.63-3.64,3.63-3.64c6.82,0,12.37-5.55,12.37-12.371  c0-2.79-0.9-5.42-2.61-7.61c-0.52-0.65-0.4-1.6,0.25-2.11c0.66-0.51,1.6-0.39,2.11,0.26c2.13,2.72,3.25,6,3.25,9.46  c0,8.48-6.89,15.371-15.37,15.371c-0.35,0-0.63,0.289-0.63,0.64c0,10.939,8.9,19.84,19.84,19.84c6.35,0,12.31-3.05,16.03-8.17  c-3.08-1.93-4.03-5.54-4.03-7.76l0.01-0.21l0.79-5.74c-5.41-2.47-8.97-7.95-8.97-13.97c0-3.46,1.13-6.73,3.26-9.45  c0.51-0.66,1.45-0.77,2.1-0.26c0.66,0.51,0.77,1.45,0.26,2.1c-1.71,2.19-2.62,4.82-2.62,7.61c0,4.54,2.51,8.69,6.41,10.82l0.29-2.1  c0.11-0.82,0.87-1.4,1.69-1.28c0.82,0.12,1.39,0.87,1.28,1.69l-1.5,10.88c0.03,0.93,0.44,5.99,6.08,5.99  c5.621,0,6.041-5.04,6.07-5.99l-1.5-10.88c-0.109-0.82,0.46-1.57,1.28-1.69c0.82-0.12,1.58,0.46,1.7,1.28l1.41,10.4l0.109,0.8  c0,0.41-0.029,0.87-0.1,1.35C57.85,65.09,55.93,69.11,50.82,69.76z"></path><path d="M75.94,78.21c0,0.82-0.671,1.5-1.5,1.5H63.08c-0.83,0-1.5-0.68-1.5-1.5c0-0.83,0.67-1.5,1.5-1.5h4.18v-6.95  c-5.109-0.649-7.04-4.67-7.47-7.63c-0.08-0.479-0.11-0.939-0.11-1.35l0.021-0.21l0.08-0.59l1.43-10.4c0.11-0.82,0.87-1.4,1.69-1.28  c0.819,0.12,1.399,0.87,1.279,1.69l-1.5,10.88c0.03,0.93,0.44,5.99,6.08,5.99c5.62,0,6.05-5.051,6.08-5.99l-1.5-10.88  c-0.12-0.82,0.46-1.57,1.28-1.69c0.81-0.12,1.57,0.46,1.689,1.28l1.53,11.2c0,2.91-1.63,8.22-7.58,8.979v6.95h4.181  C75.27,76.71,75.94,77.38,75.94,78.21z"></path><path d="M64.195,61c0.337,4.161,3.177,4,4.566,4c1.378,0,4.19,0.205,4.559-4H64.195z"></path><path d="M83.5,61c0.337,4.161,3.177,4,4.566,4c1.378,0,4.19,0.205,4.559-4H83.5z"></path><path d="M44.875,61c0.337,4.161,3.177,4,4.566,4c1.378,0,4.19,0.205,4.559-4H44.875z"></path><path d="M95.11,78.21c0,0.82-0.681,1.5-1.5,1.5H82.24c-0.83,0-1.5-0.68-1.5-1.5c0-0.83,0.67-1.5,1.5-1.5h4.18v-6.95  c-5.95-0.76-7.58-6.069-7.58-8.979l0.021-0.21l1.51-10.99c0.12-0.82,0.87-1.4,1.689-1.28c0.82,0.12,1.4,0.87,1.29,1.69l-1.5,10.88  c0.021,0.93,0.44,5.99,6.07,5.99s6.05-5.051,6.08-5.99l-1.5-10.88c-0.11-0.82,0.46-1.57,1.28-1.69c0.81-0.12,1.58,0.46,1.689,1.28  L97,60.78c0,2.91-1.63,8.22-7.58,8.979v6.95h4.19C94.43,76.71,95.11,77.38,95.11,78.21z"></path><path d="M39.34,68.66c-3.06,2.76-7,4.55-11.1,4.55C20.12,73.21,13.26,66.77,12,59h24.94l-0.15,1.09l-0.05,0.34v0.351  C36.74,63.2,37.52,66.2,39.34,68.66z"></path></svg>