<svg xmlns="http://www.w3.org/2000/svg" xmlns:xlink="http://www.w3.org/1999/xlink" version="1.1" x="0px" y="0px" viewBox="0 0 48 48" enable-background="new 0 0 48 48" xml:space="preserve"><path fill="#000000" d="M16.008,16.71h0.011c-0.034-2.394-1.527-4.504-3.752-5.353v-8.67c0.252-0.16,0.418-0.443,0.418-0.767  c0-0.497-0.409-0.902-0.913-0.902H8.505c-0.506,0-0.902,0.396-0.902,0.902c0,0.32,0.162,0.603,0.407,0.763v8.724  c-2.164,0.863-3.618,2.955-3.652,5.302l0.011,0.001c-0.021,0.609-0.021,4.238-0.021,28.254c0,1.158,0.942,2.101,2.102,2.101h7.479  c1.159,0,2.102-0.942,2.102-2.101C16.029,20.95,16.028,17.319,16.008,16.71z"></path><path fill="#000000" d="M22.505,33.327h-0.941c-1.076,0-1.951,0.819-1.951,1.827v9.748c0,1.008,0.875,1.827,1.951,1.827h0.941  c1.076,0,1.951-0.819,1.951-1.827v-9.748C24.456,34.146,23.581,33.327,22.505,33.327z"></path><path fill="#000000" d="M20.731,24.756c0.081,0,0.163-0.021,0.237-0.067l1.932-1.195c0.212-0.131,0.277-0.409,0.146-0.621  c-0.132-0.212-0.409-0.277-0.621-0.146l-1.932,1.195c-0.212,0.131-0.277,0.409-0.146,0.621  C20.434,24.68,20.581,24.756,20.731,24.756z"></path><path fill="#000000" d="M20.469,26.658c0.081,0,0.163-0.021,0.237-0.067l2.457-1.52c0.212-0.131,0.277-0.409,0.146-0.621  c-0.132-0.212-0.408-0.277-0.621-0.146l-2.457,1.52c-0.212,0.131-0.277,0.409-0.146,0.621  C20.171,26.582,20.318,26.658,20.469,26.658z"></path><path fill="#000000" d="M20.469,28.398c0.081,0,0.163-0.021,0.237-0.067l2.457-1.52c0.212-0.131,0.277-0.409,0.146-0.621  c-0.132-0.212-0.408-0.277-0.621-0.146l-2.457,1.52c-0.212,0.131-0.277,0.409-0.146,0.621  C20.171,28.322,20.318,28.398,20.469,28.398z"></path><path fill="#000000" d="M20.469,30.139c0.081,0,0.163-0.021,0.237-0.067l2.457-1.52c0.212-0.131,0.277-0.409,0.146-0.621  c-0.132-0.212-0.408-0.277-0.621-0.146l-2.457,1.52c-0.212,0.131-0.277,0.409-0.146,0.621  C20.171,30.062,20.318,30.139,20.469,30.139z"></path><path fill="#000000" d="M20.469,31.879c0.081,0,0.163-0.021,0.237-0.067l2.457-1.52c0.212-0.131,0.277-0.409,0.146-0.621  c-0.132-0.213-0.408-0.278-0.621-0.146l-2.457,1.52c-0.212,0.131-0.277,0.409-0.146,0.621  C20.171,31.803,20.318,31.879,20.469,31.879z"></path><path fill="#000000" d="M21.655,31.485c-0.232,0.092-0.346,0.354-0.255,0.585l0.254,0.645c0.07,0.178,0.24,0.286,0.42,0.286  c0.055,0,0.111-0.01,0.165-0.031c0.232-0.092,0.346-0.354,0.255-0.585L22.24,31.74C22.148,31.509,21.887,31.394,21.655,31.485z"></path><path fill="#000000" d="M20.904,22.768c0.07,0.178,0.24,0.286,0.42,0.286c0.055,0,0.111-0.01,0.165-0.031  c0.232-0.092,0.346-0.354,0.255-0.585l-0.254-0.645c-0.091-0.231-0.354-0.346-0.585-0.255c-0.232,0.092-0.346,0.354-0.255,0.585  L20.904,22.768z"></path><path fill="#000000" d="M45.1,37.5v0.22c0,3.53-3.84,6.4-8.56,6.4c-4.73,0-8.57-2.87-8.57-6.4V37.5c2.511,0.5,5.45,0.77,8.57,0.77  C39.65,38.27,42.59,38,45.1,37.5z"></path><path fill="#000000" d="M33.1,46.97c0-0.83,1.41-1.75,3.44-1.75c2.02,0,3.43,0.92,3.43,1.75"></path><path fill="#000000" d="M46.2,37.72c0-0.37-0.021-0.689-0.08-0.989l-0.11-0.561l-0.55,0.12c-2.56,0.58-5.64,0.88-8.92,0.88  c-3.29,0-6.37-0.3-8.93-0.88l-0.551-0.12L26.95,36.73c-0.061,0.3-0.08,0.63-0.08,0.989c0,3.32,2.78,6.13,6.63,7.11  c-0.93,0.52-1.5,1.28-1.5,2.14h1.1c0-0.83,1.41-1.75,3.44-1.75c2.02,0,3.43,0.92,3.43,1.75h1.101c0-0.859-0.57-1.62-1.5-2.14  C43.42,43.85,46.2,41.04,46.2,37.72z M36.54,44.12c-4.73,0-8.57-2.87-8.57-6.4V37.5c2.511,0.5,5.45,0.77,8.57,0.77  c3.11,0,6.05-0.27,8.56-0.77v0.22C45.1,41.25,41.26,44.12,36.54,44.12z"></path><path fill="#000000" d="M39.318,33.816c-1.056-0.672-2.244-0.693-2.641-0.055c-0.405,0.638,0.122,1.694,1.178,2.365  c1.056,0.67,2.233,0.704,2.641,0.065C40.903,35.555,40.374,34.498,39.318,33.816z M40.078,35.895  c-0.121,0.188-0.375,0.243-0.562,0.122c-0.198-0.122-0.264-0.374-0.144-0.571c0.122-0.177,0.374-0.231,0.573-0.111  C40.133,35.467,40.188,35.708,40.078,35.895z"></path><path fill="#000000" d="M43.715,32.82c-1.088-0.625-2.267-0.604-2.644,0.053c-0.374,0.648,0.197,1.688,1.283,2.312  c1.087,0.625,2.272,0.595,2.645-0.053C45.377,34.474,44.801,33.444,43.715,32.82z M41.664,33.694  c-0.2-0.113-0.267-0.354-0.156-0.544c0.115-0.2,0.355-0.266,0.556-0.15s0.275,0.36,0.159,0.561  C42.113,33.753,41.863,33.811,41.664,33.694z"></path><path fill="#000000" d="M41.802,30.067c-0.624-0.432-1.704,0.068-2.403,1.098c-0.377,0.558-0.578,1.141-0.581,1.646  c0.132,0.056,0.264,0.123,0.396,0.212c0.383,0.255,0.7,0.555,0.919,0.874c0.165-0.032,0.33-0.108,0.496-0.217  c-0.219-0.398-0.249-0.806-0.071-1.112c0.245-0.405,0.783-0.567,1.422-0.466C42.357,31.247,42.307,30.411,41.802,30.067z   M41.6,31.045c-0.133,0.186-0.387,0.241-0.573,0.118c-0.187-0.133-0.229-0.387-0.096-0.573c0.134-0.186,0.375-0.24,0.562-0.117  C41.678,30.606,41.721,30.849,41.6,31.045z"></path><path fill="#000000" d="M38.014,31.703c-0.495-1.1-1.419-1.76-2.091-1.463c-0.659,0.286-0.813,1.419-0.33,2.53  c0.177,0.406,0.418,0.748,0.683,1.001c-0.055-0.253-0.011-0.484,0.11-0.683c0.308-0.483,1.077-0.583,1.902-0.296  C38.267,32.451,38.179,32.077,38.014,31.703z M36.43,31.429c-0.198,0.088-0.43-0.011-0.518-0.21c-0.088-0.208,0-0.429,0.187-0.517  c0.21-0.088,0.43,0,0.519,0.197C36.716,31.109,36.628,31.34,36.43,31.429z"></path><path fill="#000000" d="M35.381,34.234c-0.693-1.056-1.749-1.573-2.388-1.155c-0.627,0.407-0.594,1.585,0.089,2.641  c0.692,1.056,1.759,1.562,2.387,1.155C36.106,36.468,36.062,35.279,35.381,34.234z M33.709,34.213  c-0.187,0.12-0.43,0.055-0.562-0.132c-0.121-0.198-0.076-0.44,0.11-0.562c0.197-0.121,0.439-0.077,0.561,0.121  C33.95,33.839,33.906,34.092,33.709,34.213z"></path><path fill="#000000" d="M29.997,33.662c-1.207-0.339-2.346-0.029-2.55,0.701c-0.202,0.721,0.607,1.587,1.813,1.925  c1.207,0.339,2.348,0.019,2.55-0.701C32.016,34.855,31.204,34,29.997,33.662z M28.225,35.014c-0.222-0.061-0.346-0.277-0.285-0.489  c0.062-0.223,0.279-0.345,0.502-0.282c0.222,0.062,0.355,0.282,0.292,0.505C28.674,34.959,28.447,35.077,28.225,35.014z"></path><path fill="#000000" d="M32.334,31.391c-0.484-0.571-1.662-0.385-2.607,0.43c-0.374,0.319-0.648,0.683-0.825,1.045  c0.341-0.022,0.715,0.021,1.101,0.132c0.638,0.187,1.176,0.518,1.495,0.902C32.454,33.085,32.828,31.963,32.334,31.391z   M31.883,32.282c-0.176,0.143-0.43,0.132-0.583-0.044c-0.144-0.165-0.122-0.418,0.055-0.572c0.176-0.144,0.43-0.133,0.572,0.044  C32.08,31.886,32.059,32.128,31.883,32.282z"></path></svg>